<?xml version="1.0" encoding="UTF-8"?>
<svg xmlns="http://www.w3.org/2000/svg" xmlns:xlink="http://www.w3.org/1999/xlink" width="53.25pt" height="71.999998pt" viewBox="0 0 53.25 71.999998" version="1.2">
<defs>
<clipPath id="clip1">
  <path d="M 0 0.5 L 52.511719 0.5 L 52.511719 3 L 0 3 Z M 0 0.5 "/>
</clipPath>
<clipPath id="clip2">
  <path d="M 0 69 L 52.511719 69 L 52.511719 71.5 L 0 71.5 Z M 0 69 "/>
</clipPath>
<clipPath id="clip3">
  <path d="M 0 0.5 L 3 0.5 L 3 71.5 L 0 71.5 Z M 0 0.5 "/>
</clipPath>
<clipPath id="clip4">
  <path d="M 50 0.5 L 52.511719 0.5 L 52.511719 71.5 L 50 71.5 Z M 50 0.5 "/>
</clipPath>
</defs>
<g id="surface1">
<g clip-path="url(#clip1)" clip-rule="nonzero">
<path style="fill:none;stroke-width:1;stroke-linecap:round;stroke-linejoin:miter;stroke:rgb(100%,100%,100%);stroke-opacity:1;stroke-miterlimit:4;" d="M 0.500136 0.000000471538 L 26.816332 0.000000471538 " transform="matrix(2.220442,0,0,2.21875,-4.048023,1.609374)"/>
</g>
<g clip-path="url(#clip2)" clip-rule="nonzero">
<path style="fill:none;stroke-width:1;stroke-linecap:round;stroke-linejoin:miter;stroke:rgb(100%,100%,100%);stroke-opacity:1;stroke-miterlimit:4;" d="M 0.499989 0.0000017632 L 26.816185 0.0000017632 " transform="matrix(2.220442,0,0,2.21875,-4.203947,70.390621)"/>
</g>
<g clip-path="url(#clip3)" clip-rule="nonzero">
<path style="fill:none;stroke-width:1;stroke-linecap:round;stroke-linejoin:miter;stroke:rgb(100%,100%,100%);stroke-opacity:1;stroke-miterlimit:4;" d="M 0.499792 0.000223818 L 32.385171 0.000223818 " transform="matrix(0.000000000000000136,-2.226481,2.21875,0.000000000000000136,1.108878,71.499497)"/>
</g>
<g clip-path="url(#clip4)" clip-rule="nonzero">
<path style="fill:none;stroke-width:1;stroke-linecap:round;stroke-linejoin:miter;stroke:rgb(100%,100%,100%);stroke-opacity:1;stroke-miterlimit:4;" d="M 0.499827 0.000812886 L 33.052389 0.000812886 " transform="matrix(0.000000000000000136,-2.226327,2.21875,0.000000000000000136,51.40054,71.499497)"/>
</g>
</g>
</svg>
